<svg id="Layer_1" data-name="Layer 1" xmlns="http://www.w3.org/2000/svg" viewBox="0 0 600 600"><path d="M303.19,0c-1.06,0-2.12,0-3.19,0C134.31,0,0,134.31,0,300S134.31,600,300,600c1.07,0,2.13,0,3.19,0C467.41,598.25,600,464.62,600,300S467.41,1.75,303.19,0ZM251.82,79.7a17.35,17.35,0,0,1,17.12-17.09h55.29a16.07,16.07,0,0,1,11.87,5.08,16.47,16.47,0,0,1,5,12V185.75A17.05,17.05,0,0,1,324,202.82H268.94a17,17,0,0,1-17.09-17.07h0Zm55.42,504.72c-1.36,0-2.72.06-4.08.06H303c-2.26,0-4.51-.07-6.75-.17l-1.11-.06q-2.78-.15-5.52-.42c-.73-.06-1.47-.14-2.2-.22-1.43-.16-2.86-.34-4.28-.54-1.1-.16-2.21-.32-3.3-.5s-2-.35-3-.54c-1.47-.28-2.94-.57-4.4-.89l-1.77-.41c-1.85-.43-3.69-.89-5.51-1.4l-.5-.14A142.25,142.25,0,0,1,302.92,300h.23A142.26,142.26,0,0,0,341.73,20.81l-.5-.14c-1.82-.51-3.66-1-5.51-1.4L334,18.86c-1.46-.32-2.93-.61-4.41-.89-1-.19-2-.37-3-.54s-2.21-.34-3.31-.5c-1.42-.2-2.85-.39-4.28-.54l-2.2-.22c-1.84-.18-3.67-.32-5.52-.42l-1.11-.06c-1.13-.06-2.25-.14-3.39-.17C462.1,17.48,587.57,144.14,587.57,300,587.57,455.61,462.38,582.18,307.24,584.42Z" fill="#fff"/><polygon points="323.58 185.11 323.58 80.57 269.8 80.57 269.56 80.57 269.56 185.11 269.8 185.11 323.58 185.11" fill="#fff"/><path d="M343.56,460.61a8.41,8.41,0,0,0-6.26,2.64,8.66,8.66,0,0,0-2.58,6.23v36.9H317V384.11H272.48a8.81,8.81,0,0,0-8.87,8.84,8.45,8.45,0,0,0,2.58,6.28,8.64,8.64,0,0,0,6.29,2.58h26.77V506.35H272v0a8.6,8.6,0,0,0-6.26,2.53,8.4,8.4,0,0,0-2.58,6.14,8.86,8.86,0,0,0,2.58,6.4,8.38,8.38,0,0,0,6.26,2.67h71.53a8.52,8.52,0,0,0,6.29-2.56,8.68,8.68,0,0,0,2.58-6.31V469.48a8.81,8.81,0,0,0-8.87-8.87Z" fill="#fff"/></svg>