<svg width="38" height="37" viewBox="0 0 38 37" fill="none" xmlns="http://www.w3.org/2000/svg">
<circle cx="18.8353" cy="18.4808" r="18.4105" fill="white"/>
<path d="M11.4077 13.2666C12.6161 13.2666 13.5957 12.287 13.5957 11.0786C13.5957 9.87023 12.6161 8.89062 11.4077 8.89062C10.1993 8.89062 9.21973 9.87023 9.21973 11.0786C9.21973 12.287 10.1993 13.2666 11.4077 13.2666Z" fill="black"/>
<path d="M15.662 14.925V27.064H19.431V21.061C19.431 19.477 19.729 17.943 21.693 17.943C23.63 17.943 23.654 19.754 23.654 21.161V27.065H27.425V20.408C27.425 17.138 26.721 14.625 22.899 14.625C21.064 14.625 19.834 15.632 19.331 16.585H19.28V14.925H15.662ZM9.52002 14.925H13.295V27.064H9.52002V14.925Z" fill="black"/>
</svg>
