<svg width="31" height="40" viewBox="0 0 31 40" fill="none" xmlns="http://www.w3.org/2000/svg">
<mask id="mask0_115_2420" style="mask-type:alpha" maskUnits="userSpaceOnUse" x="0" y="0" width="31" height="40">
<path fill-rule="evenodd" clip-rule="evenodd" d="M0.387695 0.5H30.758V39.5H0.387695V0.5Z" fill="white"/>
</mask>
<g mask="url(#mask0_115_2420)">
<path fill-rule="evenodd" clip-rule="evenodd" d="M21.947 28.5387C20.5821 30.1462 19.8221 33.0783 20.8178 34.0226C21.7697 34.7561 24.3254 34.6536 26.2131 32.0197C27.5839 30.2507 27.1246 27.2963 26.3416 26.5119C25.1785 25.6072 23.5088 26.765 21.947 28.5382V28.5387ZM9.24664 29.023C7.79893 27.334 5.91814 26.3269 4.70082 27.0726C3.88672 27.6954 3.73745 29.816 4.89666 31.8996C6.61578 34.3831 9.03438 34.6319 10.0304 34.0276C11.083 33.2362 10.508 30.5513 9.24664 29.023V29.023ZM15.8038 34.1463C14.0431 34.102 11.3428 34.8557 11.3757 35.8211C11.3476 36.4795 13.4955 38.3789 15.6863 38.284C17.8015 38.3206 19.9872 36.424 19.9577 35.5845C19.9531 34.7201 17.5755 34.0685 15.8038 34.1463V34.1463ZM15.6468 11.4588C13.6146 11.4057 11.6643 12.9755 11.6595 13.886C11.6538 14.9923 13.2662 16.1252 15.6606 16.1539C18.1058 16.1715 19.666 15.2472 19.6738 14.1054C19.6829 12.8117 17.45 11.4388 15.6468 11.4587V11.4588ZM10.9558 12.3246C7.55065 11.7465 4.71772 13.7811 4.83208 17.4935C4.94397 18.9169 12.2103 12.5366 10.9558 12.3246V12.3246ZM26.4872 17.6025C26.6016 13.8897 23.7683 11.8555 20.3635 12.4336C19.1089 12.6455 26.3753 19.0259 26.4872 17.6025V17.6025ZM26.9807 18.9545C25.0075 18.4228 26.3147 27.1628 27.9201 26.4457C29.6859 25.0174 30.2546 20.8344 26.9807 18.9545V18.9545ZM3.24077 26.5543C4.84602 27.2714 6.15284 18.5317 4.17996 19.0635C0.906055 20.9434 1.47484 25.126 3.24077 26.5543V26.5543ZM18.1329 16.8646C16.3054 18.0685 15.976 20.7976 17.3971 22.9599C18.8182 25.1223 21.4516 25.8995 23.279 24.6955C25.1065 23.4916 25.4359 20.7625 24.0148 18.6C22.5938 16.4376 19.9604 15.6606 18.1329 16.8646V16.8646ZM13.2004 17.0826C11.373 15.8786 8.7396 16.6556 7.3186 18.818C5.89748 20.9805 6.22693 23.7095 8.05436 24.9135C9.88173 26.1174 12.5152 25.3403 13.9362 23.1778C15.3573 21.0155 15.0279 18.2864 13.2004 17.0826V17.0826ZM20.0771 28.7218C20.0643 26.4633 18.0792 24.642 15.6435 24.6539C13.2077 24.6658 11.2436 26.5065 11.2564 28.765C11.2563 28.7793 11.2563 28.7937 11.2564 28.808C11.2692 31.0666 13.2542 32.8879 15.69 32.8759C18.1257 32.864 20.0899 31.0234 20.0771 28.765C20.0771 28.7505 20.0771 28.7363 20.0771 28.7218V28.7218ZM25.3749 4.11878C21.6933 6.02786 19.5529 7.57151 18.3802 8.88682C18.9807 11.3072 22.1136 11.4177 23.2591 11.3497C23.0246 11.24 22.8289 11.1084 22.7596 10.9064C23.0469 10.7011 24.0661 10.8848 24.7777 10.4828C24.5044 10.4258 24.3765 10.3705 24.2487 10.1676C24.9209 9.952 25.645 9.76617 26.0709 9.40899C25.8411 9.41195 25.6264 9.46069 25.3263 9.25137C25.9284 8.92504 26.571 8.66654 27.0702 8.16773C26.7589 8.16018 26.4232 8.16458 26.3255 8.04953C26.8768 7.70627 27.3418 7.3244 27.7266 6.90677C27.291 6.95966 27.107 6.91413 27.0016 6.83781C27.4183 6.40884 27.9455 6.0465 28.1969 5.51772C27.8734 5.62987 27.5775 5.67282 27.3641 5.50789C27.5057 5.18667 28.1121 4.99737 28.4613 4.24693C28.1208 4.28005 27.7597 4.32155 27.6874 4.24693C27.8457 3.59906 28.117 3.23502 28.3829 2.85775C27.6541 2.84692 26.5499 2.86065 26.5998 2.79868L27.0506 2.33571C26.3386 2.14295 25.6103 2.36656 25.0813 2.53268C24.844 2.34427 25.0856 2.10598 25.3752 1.86284C24.7703 1.94401 24.2235 2.08388 23.7294 2.27657C23.4653 2.0369 23.9008 1.79716 24.1115 1.55743C23.1768 1.73576 22.7808 1.98633 22.3872 2.23715C22.1016 1.96196 22.3709 1.72808 22.5635 1.48853C21.8587 1.75094 21.4957 2.0898 21.1136 2.42437C20.9841 2.24849 20.7845 2.11965 21.0255 1.69527C20.525 1.98539 20.1482 2.3272 19.8694 2.71001C19.5598 2.51178 19.6849 2.24074 19.6832 1.99093C19.1632 2.41625 18.8331 2.86896 18.4292 3.31096C18.3478 3.25139 18.2766 3.04925 18.2137 2.72973C16.973 3.94 15.2199 6.98857 17.763 8.19727C19.9261 6.40198 22.5108 5.09737 25.3754 4.11878H25.3749ZM5.87256 4.11928C8.73701 5.09794 11.3218 6.40261 13.4861 8.19752C16.029 6.98882 14.276 3.94031 13.0354 2.72998C12.9725 3.04956 12.9013 3.25171 12.82 3.31121C12.4159 2.86921 12.0859 2.41656 11.5659 1.99112C11.5642 2.24099 11.6893 2.51209 11.3797 2.71033C11.1008 2.32739 10.724 1.98564 10.2236 1.69559C10.4647 2.1199 10.2651 2.2488 10.1355 2.42462C9.7533 2.09011 9.3903 1.75126 8.68544 1.48879C8.8782 1.72833 9.14745 1.96221 8.86179 2.23747C8.46832 1.98652 8.07225 1.73595 7.13756 1.55768C7.34827 1.79735 7.78369 2.03709 7.51956 2.27689C7.02548 2.08419 6.47884 1.94433 5.87379 1.86303C6.16352 2.1063 6.40513 2.34458 6.16771 2.533C5.63884 2.36688 4.91042 2.1432 4.19853 2.33589L4.64913 2.79893C4.69915 2.86096 3.5949 2.84723 2.86611 2.85806C3.13215 3.23527 3.40331 3.59938 3.56146 4.24693C3.48917 4.32155 3.12801 4.28005 2.7874 4.24693C3.13659 4.99737 3.74312 5.18667 3.88475 5.50789C3.67132 5.67282 3.37543 5.62987 3.0519 5.51772C3.30326 6.0465 3.83059 6.40884 4.2472 6.83781C4.14178 6.91413 3.95784 6.95966 3.52211 6.90677C3.90701 7.3244 4.37204 7.70627 4.92312 8.04953C4.82554 8.16458 4.48986 8.16018 4.17861 8.16773C4.67781 8.66654 5.32024 8.92504 5.92246 9.25137C5.62224 9.46069 5.40777 9.41195 5.17788 9.40899C5.60374 9.76617 6.3279 9.952 7.00007 10.1676C6.87226 10.3705 6.74439 10.4258 6.47113 10.4828C7.18259 10.8848 8.20184 10.7011 8.48929 10.9064C8.41989 11.1084 8.22417 11.24 7.98965 11.3497C9.13511 11.4177 12.268 11.3072 12.8685 8.88682C11.6958 7.57176 9.5553 6.02754 5.87336 4.11878L5.87256 4.11928ZM8.60815 0.500429C8.98251 0.488779 9.30049 0.717433 9.64622 0.827383C10.4905 0.550177 10.6829 0.929966 11.0973 1.08456C12.0174 0.889033 12.2971 1.31473 12.7388 1.76404L13.2518 1.75384C14.6393 2.57601 15.3272 4.25064 15.5717 5.11173C15.8161 4.25089 16.5055 2.57613 17.8933 1.75384L18.4064 1.76404C18.8475 1.31473 19.1271 0.889033 20.0473 1.08456C20.4618 0.929966 20.6548 0.550177 21.4984 0.827383C22.0252 0.659876 22.4862 0.216611 23.1831 0.769574C23.7701 0.542054 24.339 0.462897 24.8478 0.926187C25.6336 0.823731 25.8887 1.03519 26.0822 1.28205C26.2551 1.27852 27.373 1.10383 27.8856 1.87304C29.1748 1.71971 29.5816 2.6352 29.1205 3.48886C29.3834 3.89862 29.6565 4.30335 29.0409 5.08415C29.2586 5.51916 29.1237 5.99102 28.6108 6.56224C28.7461 7.17365 28.48 7.60513 28.0028 7.94141C28.0921 8.77832 27.2397 9.26491 26.9851 9.43821C26.8875 9.92574 26.6837 10.3859 25.71 10.6404C25.5494 11.3671 24.9643 11.4926 24.3976 11.645C26.2705 12.7401 27.8766 14.1804 27.8657 17.7141L28.1404 18.2061C30.288 19.5194 32.22 23.7405 29.1987 27.1714C29.0014 28.2454 28.6704 29.0167 28.3758 29.8703C27.9349 33.3104 25.0584 34.9212 24.2998 35.1117C23.1879 35.9633 22.0039 36.7713 20.4015 37.3373C18.8911 38.9039 17.2547 39.5009 15.6092 39.4999C15.5851 39.5002 15.5605 39.4999 15.5365 39.4999C13.891 39.5008 12.2547 38.9038 10.7442 37.3373C9.14184 36.7713 7.95776 35.9633 6.84604 35.1117C6.08728 34.9212 3.21073 33.3104 2.76994 29.8703C2.47522 29.0167 2.14429 28.2454 1.94696 27.1714C-1.07429 23.7408 0.857757 19.52 3.00514 18.2068L3.27963 17.7146C3.26878 14.1806 4.8747 12.7402 6.7476 11.6455C6.18097 11.493 5.59578 11.3676 5.43528 10.6408C4.46161 10.3864 4.25781 9.92631 4.16016 9.43871C3.90559 9.26528 3.05313 8.77869 3.14245 7.94191C2.66533 7.60564 2.39916 7.17421 2.53456 6.56268C2.0216 5.99152 1.8867 5.5196 2.10432 5.08459C1.48896 4.3036 1.7616 3.89881 2.02475 3.48905C1.56323 2.63539 1.97059 1.71983 3.25928 1.87311C3.77205 1.10396 4.89031 1.27858 5.06271 1.28217C5.25621 1.03532 5.51158 0.823794 6.29731 0.926313C6.80607 0.463086 7.37504 0.542117 7.96196 0.769763C8.20147 0.579586 8.41274 0.506726 8.60889 0.500681L8.60815 0.500429Z" fill="white"/>
</g>
</svg>
