<svg width="38" height="38" viewBox="0 0 38 38" fill="none" xmlns="http://www.w3.org/2000/svg">
<circle cx="18.875" cy="18.875" r="18.875" fill="white"/>
<path fill-rule="evenodd" clip-rule="evenodd" d="M14.7704 9.06055C15.8174 9.01101 16.1512 9 18.8181 9C21.4851 9 21.8189 9.01193 22.865 9.06055C23.9111 9.10916 24.6251 9.28071 25.2499 9.52931C25.9042 9.78342 26.4977 10.1806 26.9886 10.6943C27.4885 11.198 27.8741 11.8071 28.1204 12.4804C28.3632 13.1226 28.5292 13.8565 28.5774 14.9298C28.6256 16.0077 28.6363 16.3507 28.6363 19.0909C28.6363 21.8319 28.6247 22.175 28.5774 23.2511C28.5301 24.3244 28.3632 25.0582 28.1204 25.7004C27.874 26.3738 27.4878 26.984 26.9886 27.4883C26.4977 28.002 25.9042 28.3983 25.2499 28.6515C24.6251 28.901 23.9111 29.0717 22.8668 29.1212C21.8189 29.1707 21.4851 29.1817 18.8181 29.1817C16.1512 29.1817 15.8174 29.1698 14.7704 29.1212C13.7261 29.0726 13.0121 28.901 12.3873 28.6515C11.7321 28.3983 11.1384 28.0013 10.6477 27.4883C10.1482 26.9844 9.76163 26.3745 9.51501 25.7013C9.27312 25.0592 9.10711 24.3253 9.05891 23.252C9.01071 22.1741 9 21.831 9 19.0909C9 16.3498 9.0116 16.0067 9.05891 14.9316C9.10621 13.8565 9.27312 13.1226 9.51501 12.4804C9.762 11.8072 10.1488 11.1973 10.6486 10.6934C11.1386 10.1802 11.7317 9.78291 12.3864 9.52931C13.0112 9.28071 13.7252 9.11008 14.7695 9.06055H14.7704ZM22.7856 10.8769C21.7502 10.8283 21.4396 10.8182 18.8181 10.8182C16.1967 10.8182 15.8861 10.8283 14.8507 10.8769C13.893 10.9219 13.3735 11.0861 13.0272 11.2246C12.5693 11.408 12.2418 11.6255 11.8981 11.9786C11.5724 12.3043 11.3217 12.7009 11.1645 13.1391C11.0297 13.495 10.8699 14.0289 10.8262 15.0132C10.7789 16.0774 10.7691 16.3966 10.7691 19.0909C10.7691 21.7851 10.7789 22.1044 10.8262 23.1685C10.8699 24.1528 11.0297 24.6867 11.1645 25.0427C11.3215 25.4802 11.5724 25.8774 11.8981 26.2031C12.215 26.5379 12.6015 26.7957 13.0272 26.9572C13.3735 27.0957 13.893 27.2599 14.8507 27.3048C15.8861 27.3535 16.1958 27.3636 18.8181 27.3636C21.4405 27.3636 21.7502 27.3535 22.7856 27.3048C23.7433 27.2599 24.2628 27.0957 24.6091 26.9572C25.067 26.7737 25.3945 26.5563 25.7382 26.2031C26.0639 25.8774 26.3148 25.4802 26.4718 25.0427C26.6066 24.6867 26.7664 24.1528 26.8101 23.1685C26.8574 22.1044 26.8672 21.7851 26.8672 19.0909C26.8672 16.3966 26.8574 16.0774 26.8101 15.0132C26.7664 14.0289 26.6066 13.495 26.4718 13.1391C26.2933 12.6685 26.0818 12.3318 25.7382 11.9786C25.4212 11.6439 25.0354 11.3862 24.6091 11.2246C24.2628 11.0861 23.7433 10.9219 22.7856 10.8769ZM17.5641 22.2016C18.2645 22.5013 19.0443 22.5417 19.7704 22.316C20.4966 22.0904 21.124 21.6126 21.5455 20.9643C21.9669 20.3161 22.1564 19.5375 22.0814 18.7616C22.0064 17.9858 21.6717 17.2607 21.1343 16.7103C20.7918 16.3585 20.3776 16.0891 19.9216 15.9216C19.4657 15.754 18.9792 15.6924 18.4973 15.7413C18.0153 15.7901 17.55 15.9482 17.1346 16.2041C16.7193 16.46 16.3643 16.8073 16.0952 17.2212C15.8262 17.635 15.6497 18.105 15.5786 18.5973C15.5075 19.0896 15.5435 19.592 15.684 20.0683C15.8244 20.5446 16.0659 20.983 16.391 21.3519C16.7161 21.7208 17.1168 22.011 17.5641 22.2016ZM15.2497 15.4233C15.7183 14.9417 16.2746 14.5596 16.8869 14.299C17.4992 14.0383 18.1554 13.9041 18.8181 13.9041C19.4809 13.9041 20.1371 14.0383 20.7494 14.299C21.3617 14.5596 21.918 14.9417 22.3866 15.4233C22.8552 15.9049 23.2269 16.4767 23.4806 17.106C23.7342 17.7353 23.8647 18.4097 23.8647 19.0909C23.8647 19.772 23.7342 20.4465 23.4806 21.0758C23.2269 21.705 22.8552 22.2768 22.3866 22.7584C21.4402 23.7311 20.1566 24.2776 18.8181 24.2776C17.4797 24.2776 16.1961 23.7311 15.2497 22.7584C14.3033 21.7857 13.7716 20.4665 13.7716 19.0909C13.7716 17.7153 14.3033 16.396 15.2497 15.4233ZM24.9839 14.6766C25.1001 14.564 25.193 14.4286 25.2573 14.2784C25.3216 14.1282 25.356 13.9663 25.3583 13.8023C25.3606 13.6382 25.3309 13.4753 25.2709 13.3233C25.2109 13.1713 25.1218 13.0331 25.0089 12.9171C24.896 12.8011 24.7616 12.7095 24.6137 12.6479C24.4658 12.5862 24.3073 12.5556 24.1477 12.558C23.9881 12.5604 23.8305 12.5957 23.6844 12.6618C23.5383 12.7279 23.4066 12.8234 23.297 12.9428C23.084 13.1749 22.9673 13.4832 22.9719 13.8023C22.9764 14.1213 23.1017 14.426 23.3212 14.6517C23.5408 14.8773 23.8372 15.0061 24.1477 15.0108C24.4581 15.0154 24.7581 14.8955 24.9839 14.6766Z" fill="#1A1A1A"/>
</svg>
