<svg width="134" height="38" viewBox="0 0 134 38" fill="none" xmlns="http://www.w3.org/2000/svg">
<path fill-rule="evenodd" clip-rule="evenodd" d="M51.5751 22.6182V26.0255C51.5415 27.0375 51.3364 27.9485 50.958 28.7237C50.6503 29.3978 50.1693 30.0406 49.485 30.5458C48.8006 31.084 47.8758 31.3889 46.6433 31.3889C45.409 31.3889 44.4506 31.084 43.7662 30.5458C43.0819 30.0406 42.6363 29.3978 42.3286 28.7237C41.9519 27.9485 41.7468 27.0375 41.7114 26.0255V11.4159C41.7468 10.437 41.9501 9.52593 42.3286 8.75077C42.6363 8.07664 43.0819 7.40077 43.7662 6.89562C44.4506 6.39046 45.4108 6.05078 46.6433 6.05078C47.8776 6.05078 48.8006 6.39046 49.485 6.89562C50.1693 7.40252 50.6503 8.07664 50.958 8.75077C51.3346 9.52767 51.5415 10.437 51.5751 11.4159V14.8231H48.1163V11.4159C48.1163 10.7418 47.9448 10.268 47.5681 9.86386C47.3966 9.69489 47.0889 9.59386 46.7122 9.59386C46.0615 9.59386 45.7538 10.0659 45.5823 10.5049C45.4815 10.7749 45.4461 11.0797 45.4108 11.4177V26.0272C45.4461 26.7344 45.6512 27.2082 45.9943 27.5775C46.1658 27.7482 46.4046 27.8475 46.7122 27.8475C47.5009 27.8475 47.8086 27.4434 47.9801 26.9365C48.0809 26.7013 48.1163 26.3965 48.1163 26.0255V22.6182H51.5751L51.5751 22.6182ZM62.3548 26.6334C62.254 28.4224 61.7058 29.6696 60.5069 30.6486C59.8898 31.1555 59.0339 31.3906 57.9039 31.3906C55.6759 31.3906 54.5813 30.1747 54.0331 28.9606C53.7254 28.2534 53.5203 27.4434 53.4867 26.5324V17.2531C53.5892 15.4642 54.1357 14.1508 55.3346 13.1387C55.9181 12.6301 56.774 12.3949 57.904 12.3949C60.1303 12.3949 61.2602 13.6108 61.8084 14.79C62.1161 15.499 62.3212 16.2759 62.3548 17.1538V26.6352V26.6334L62.3548 26.6334ZM59.101 17.2514C59.1363 16.5441 58.9984 16.0372 58.6553 15.6314C58.4838 15.4624 58.2097 15.3614 57.902 15.3614C57.2495 15.3614 56.9754 15.8003 56.8393 16.3055C56.7367 16.5755 56.7031 16.8803 56.7367 17.2496V26.5289C56.7031 27.2361 56.8746 27.7447 57.1823 28.114C57.3539 28.283 57.5926 28.384 57.902 28.384C58.551 28.384 58.8605 27.9799 58.9966 27.473C59.0992 27.203 59.1346 26.8981 59.0992 26.5289V17.2496L59.101 17.2514V17.2514ZM73.4969 31.1189H70.0381V29.903C69.4563 30.443 68.9435 30.8471 68.2928 31.152C67.9479 31.3209 67.6067 31.3871 67.299 31.3871C66.3405 31.3871 65.6898 30.8471 65.2778 30.1382C64.8322 29.4641 64.6288 28.553 64.6288 27.7779V16.0024C64.6288 15.2273 64.8339 14.3162 65.2778 13.6073C65.6898 12.9331 66.3405 12.3914 67.299 12.3914C67.9479 12.3914 68.6358 12.7624 69.1486 13.1352C69.4563 13.3704 69.7304 13.6073 70.0381 13.8773V6.31903H73.4969V31.1188L73.4969 31.1189ZM70.0381 16.7114C70.0381 16.1714 69.5235 15.5983 69.0107 15.5983C68.4961 15.5983 68.0859 16.0704 68.0859 16.7114V27.0689C68.0859 27.7117 68.4961 28.182 69.0107 28.182C69.5235 28.182 70.0381 27.7099 70.0381 27.0689V16.7114ZM84.9361 24.5048V26.6316C84.8336 28.4206 84.2872 29.6678 83.0529 30.6468C82.4357 31.1537 81.5799 31.3889 80.4499 31.3889C78.2236 31.3889 77.0936 30.173 76.5455 28.9589C76.2378 28.2516 76.0326 27.4416 75.9973 26.5306V17.2514C76.0998 15.4624 76.6816 14.149 77.9159 13.1369C78.4994 12.6283 79.3553 12.3931 80.4853 12.3931C82.7116 12.3931 83.8415 13.609 84.3897 14.7883C84.6974 15.4973 84.9025 16.2742 84.9361 17.1521V22.5172H79.2156V26.5324C79.251 27.2396 79.4543 27.7482 79.7638 28.1175C79.9353 28.2865 80.174 28.3875 80.4835 28.3875C81.1342 28.3875 81.4419 27.9834 81.5781 27.4765C81.6806 27.2065 81.7142 26.9017 81.7142 26.5324V24.5065H84.9343L84.9361 24.5048L84.9361 24.5048ZM79.2157 19.8486H81.7161V17.2496C81.7161 16.5424 81.5799 16.0355 81.2369 15.6296C81.0653 15.4607 80.7913 15.3596 80.4836 15.3596C79.8311 15.3596 79.557 15.7986 79.3872 16.3038C79.2847 16.5738 79.251 16.8786 79.2157 17.2479V19.8486V19.8486ZM94.1596 16.1714C93.8519 16.0704 93.5106 16.0373 93.2011 16.0373C92.6547 16.0373 92.0022 16.1052 91.4558 16.6103C90.8033 17.1503 90.7007 17.7234 90.7007 18.2965V31.1189H87.2419V12.6614H90.7007V14.7203C90.7361 14.4852 90.9748 13.9103 91.523 13.3703C92.0712 12.8634 92.8934 12.3914 94.1596 12.3914V16.1714V16.1714ZM95.67 31.1189V6.31906H98.5824C102.006 6.31906 103.857 6.99319 104.849 8.88318C105.808 10.7732 105.946 13.8773 105.946 18.7355C105.946 23.5938 105.808 26.6648 104.849 28.5548C103.857 30.4448 102.006 31.1189 98.5824 31.1189H95.67V31.1189ZM99.3712 27.4748C100.637 27.4748 101.357 27.3389 101.734 26.123C101.905 25.5499 102.043 24.672 102.077 23.491C102.112 22.3099 102.112 20.7248 102.112 18.6989C102.112 16.6748 102.112 15.0897 102.077 13.9069C102.043 12.7607 101.905 11.8828 101.734 11.2748C101.359 10.0938 100.639 9.95967 99.3712 9.95967V27.4747V27.4748ZM116.943 26.6316C116.842 28.4206 116.294 29.6678 115.095 30.6468C114.478 31.1537 113.622 31.3889 112.492 31.3889C110.264 31.3889 109.169 30.173 108.621 28.9589C108.313 28.2516 108.107 27.4416 108.075 26.5306V17.2514C108.177 15.4624 108.726 14.149 109.923 13.1369C110.506 12.6283 111.362 12.3931 112.492 12.3931C114.718 12.3931 115.848 13.609 116.396 14.7883C116.704 15.4973 116.909 16.2742 116.943 17.1521V26.6334V26.6317V26.6316ZM113.689 17.2497C113.724 16.5424 113.586 16.0355 113.243 15.6297C113.072 15.4607 112.798 15.3597 112.49 15.3597C111.838 15.3597 111.564 15.7986 111.427 16.3038C111.325 16.5738 111.291 16.8786 111.325 17.2479V26.5271C111.291 27.2344 111.463 27.743 111.77 28.1123C111.942 28.2813 112.181 28.3823 112.49 28.3823C113.141 28.3823 113.449 27.9782 113.585 27.4713C113.687 27.2013 113.723 26.8964 113.687 26.5271V17.2479L113.689 17.2496V17.2497ZM119.247 6.31731H122.706V9.72452H119.247V6.31731ZM122.706 12.6614V31.5892C122.706 32.5333 122.706 34.0192 122.227 35.2351C121.747 36.4823 120.686 37.4612 118.732 37.4612C118.186 37.4612 117.808 37.4264 117.569 37.3602C117.431 37.3254 117.33 37.2923 117.226 37.2592V34.122C117.328 34.1551 117.431 34.1551 117.533 34.1882C117.772 34.223 117.979 34.2561 118.186 34.2561C118.768 34.2561 119.042 33.784 119.178 33.2109C119.213 32.9409 119.247 32.6361 119.247 32.333C119.247 32.0282 119.247 31.7582 119.247 31.5561V12.6614H122.706V12.6614ZM134 26.6316C133.899 28.4206 133.35 29.6678 132.152 30.6468C131.535 31.1537 130.679 31.3889 129.549 31.3889C127.321 31.3889 126.227 30.173 125.679 28.9589C125.371 28.2516 125.166 27.4416 125.132 26.5306V17.2514C125.235 15.4624 125.781 14.149 126.98 13.1369C127.564 12.6283 128.419 12.3931 129.549 12.3931C131.776 12.3931 132.906 13.609 133.454 14.7883C133.762 15.4973 133.967 16.2742 134 17.1521V26.6334V26.6317V26.6316ZM130.746 17.2497C130.782 16.5424 130.644 16.0355 130.301 15.6297C130.129 15.4607 129.855 15.3597 129.547 15.3597C128.897 15.3597 128.621 15.7986 128.485 16.3038C128.382 16.5738 128.349 16.8786 128.382 17.2479V26.5271C128.349 27.2344 128.52 27.743 128.828 28.1123C128.999 28.2813 129.238 28.3823 129.547 28.3823C130.198 28.3823 130.506 27.9782 130.644 27.4713C130.746 27.2013 130.782 26.8964 130.746 26.5271V17.2479V17.2496V17.2497Z" fill="black"/>
<path d="M18.8318 37.0613C29.0696 37.0613 37.3691 28.8858 37.3691 18.8007C37.3691 8.71561 29.0696 0.540039 18.8318 0.540039C8.59388 0.540039 0.294434 8.71561 0.294434 18.8007C0.294434 28.8858 8.59388 37.0613 18.8318 37.0613Z" fill="#FEFEFE"/>
<path fill-rule="evenodd" clip-rule="evenodd" d="M18.9034 0.185547C29.3435 0.185547 37.8067 8.52243 37.8067 18.8068C37.8067 29.0911 29.3435 37.428 18.9034 37.428C8.4632 37.428 0 29.0911 0 18.8068C0 8.52243 8.4632 0.185547 18.9034 0.185547ZM18.7124 1.14883C18.624 1.14883 18.5356 1.15058 18.4471 1.15232C8.67188 1.29167 0.783395 9.14777 0.783395 18.8085C0.783395 28.4814 8.68957 36.3428 18.4808 36.4647C13.6391 36.3445 9.74879 32.4356 9.74879 27.6383C9.74879 22.7644 13.7646 18.8085 18.7124 18.8085C23.6601 18.8085 27.676 14.8526 27.676 9.97867C27.676 5.10477 23.6601 1.14885 18.7124 1.14885V1.14883Z" fill="black"/>
<path fill-rule="evenodd" clip-rule="evenodd" d="M15.8828 11.7285V5.14579C15.8828 4.85838 15.9889 4.60928 16.2029 4.40025C16.4151 4.19122 16.6679 4.08496 16.9615 4.08496H20.4451C20.7333 4.08496 20.9827 4.18948 21.1931 4.40025C21.4035 4.60928 21.5078 4.85838 21.5078 5.14579V11.7285C21.5078 12.0212 21.4017 12.2703 21.1931 12.4776C20.9827 12.6848 20.728 12.7876 20.4309 12.7876H16.9615C16.6609 12.7876 16.4045 12.6848 16.1958 12.4776C15.9871 12.2703 15.8846 12.0212 15.8846 11.7285H15.8828H15.8828ZM20.4044 11.6884V5.19977H17.0004V11.6884H20.4044Z" fill="black"/>
<path fill-rule="evenodd" clip-rule="evenodd" d="M17.1595 31.621H18.8748V25.1324H17.1878C17.0322 25.1324 16.9014 25.0784 16.7917 24.9721C16.6821 24.8658 16.6291 24.7352 16.6291 24.5819C16.6291 24.4304 16.6839 24.2997 16.7917 24.1935C16.8996 24.0872 17.0322 24.0332 17.1878 24.0332H19.9924V31.6228H21.11V29.3322C21.11 29.1841 21.1648 29.0552 21.2727 28.9454C21.3805 28.8357 21.5132 28.7817 21.667 28.7817C21.8226 28.7817 21.9552 28.8357 22.0631 28.942C22.171 29.05 22.2258 29.1789 22.2258 29.3322V32.1732C22.2258 32.3265 22.171 32.4572 22.0631 32.5652C21.9552 32.6714 21.8244 32.7237 21.667 32.7237H17.1596C17.0039 32.7237 16.8731 32.6679 16.7652 32.5582C16.6556 32.4467 16.6025 32.3143 16.6025 32.161C16.6025 32.013 16.6574 31.8858 16.7652 31.7796C16.8731 31.675 17.0057 31.6228 17.1596 31.6228V31.621L17.1595 31.621Z" fill="white"/>
</svg>
