<svg width="37" height="37" viewBox="0 0 37 37" fill="none" xmlns="http://www.w3.org/2000/svg">
<circle cx="18.4105" cy="18.4808" r="18.4105" fill="white"/>
<g clip-path="url(#clip0_2125_70679)">
<path d="M28.0811 12.3437C27.3795 12.6521 26.6364 12.8558 25.8756 12.9482C26.6776 12.4669 27.278 11.7113 27.5656 10.8212C26.807 11.2612 25.9814 11.5736 25.1217 11.7462C24.5435 11.1285 23.7777 10.7188 22.9429 10.5808C22.1082 10.4428 21.2512 10.5841 20.505 10.9828C19.7587 11.3816 19.165 12.0155 18.8158 12.7861C18.4666 13.5568 18.3815 14.4212 18.5737 15.2451C15.3794 15.0957 12.5477 13.561 10.6539 11.2424C10.3091 11.8287 10.1288 12.4971 10.1319 13.1773C10.1315 13.8096 10.2871 14.4322 10.5851 14.9898C10.8831 15.5475 11.3142 16.0229 11.8401 16.3739C11.2307 16.3555 10.6345 16.1914 10.1015 15.8953V15.9416C10.1013 16.8291 10.408 17.6894 10.9695 18.3766C11.5311 19.0638 12.313 19.5357 13.1827 19.7123C12.8533 19.8004 12.5138 19.8455 12.1728 19.8465C11.9262 19.8465 11.6907 19.8225 11.4558 19.7791C11.7033 20.5428 12.1828 21.2104 12.8274 21.6888C13.4721 22.1673 14.2499 22.4328 15.0526 22.4486C13.6926 23.5136 12.0145 24.0914 10.2872 24.0894C9.98122 24.0906 9.67547 24.0734 9.37158 24.0378C11.1337 25.1669 13.1829 25.7663 15.2757 25.7647C22.3445 25.7647 26.2071 19.9098 26.2071 14.8392C26.2071 14.6775 26.2071 14.5129 26.1948 14.3477C26.9504 13.8062 27.6016 13.1322 28.1168 12.3584L28.0811 12.3437Z" fill="#1A1A1A"/>
</g>
<defs>
<clipPath id="clip0_2125_70679">
<rect width="18.7452" height="18.7452" fill="white" transform="translate(9.37256 8.77441)"/>
</clipPath>
</defs>
</svg>
