<svg width="38" height="37" viewBox="0 0 38 37" fill="none" xmlns="http://www.w3.org/2000/svg">
<circle cx="18.6566" cy="18.4808" r="18.4105" fill="white"/>
<path d="M15.641 8.32031C14.5645 8.32031 13.6936 9.19375 13.6936 10.2703C13.6936 10.7857 13.8992 11.2834 14.2623 11.649C14.6279 12.0146 15.123 12.2203 15.641 12.2203H17.5885V10.2703C17.5885 9.19629 16.7176 8.32285 15.641 8.32031ZM15.641 13.5203H10.4436C9.36699 13.5203 8.49609 14.3938 8.49609 15.4703C8.49609 16.5469 9.36953 17.4203 10.4436 17.4203H15.6385C16.715 17.4203 17.5859 16.5469 17.5859 15.4703C17.5885 14.3938 16.715 13.5203 15.641 13.5203ZM20.8359 17.4203C21.9125 17.4203 22.7859 16.5469 22.7834 15.4703V10.2703C22.7834 9.19375 21.9125 8.32031 20.8359 8.32031C19.7594 8.32031 18.8885 9.19375 18.8885 10.2703V15.4703C18.8885 16.5494 19.7594 17.4203 20.8359 17.4203ZM27.9809 15.4703C27.9809 14.3938 27.1074 13.5203 26.0334 13.5203C24.9594 13.5203 24.0859 14.3938 24.0859 15.4703V17.4203H26.0334C27.1074 17.4203 27.9809 16.5469 27.9809 15.4703ZM26.0309 18.7203H20.8359C19.7594 18.7203 18.8885 19.5938 18.8885 20.6703C18.8885 21.1857 19.0941 21.6834 19.4572 22.049C19.8229 22.4146 20.318 22.6203 20.8359 22.6203H26.0309C27.1074 22.6203 27.9783 21.7469 27.9783 20.6703C27.9809 19.5938 27.1074 18.7229 26.0309 18.7203ZM20.8359 23.9203H18.8885V25.8703C18.8885 26.9469 19.7619 27.8203 20.8359 27.8203C21.9125 27.8203 22.7859 26.9469 22.7834 25.8703C22.7859 24.7938 21.9125 23.9229 20.8359 23.9203ZM15.641 18.7203C14.5645 18.7203 13.6936 19.5938 13.6936 20.6703V25.8703C13.6936 26.9469 14.567 27.8203 15.641 27.8203C16.7176 27.8203 17.591 26.9469 17.5885 25.8703V20.6703C17.5885 20.1549 17.3828 19.6572 17.0197 19.2916C16.6541 18.926 16.1564 18.7203 15.641 18.7203ZM8.49609 20.6703C8.49609 21.1857 8.70176 21.6834 9.06484 22.049C9.43047 22.4146 9.92559 22.6203 10.4436 22.6203C11.5201 22.6203 12.3936 21.7469 12.391 20.6703V18.7203H10.4436C9.36953 18.7203 8.49609 19.5938 8.49609 20.6703Z" fill="black"/>
</svg>
